<svg width="809" height="807" viewBox="0 0 809 807" fill="none" xmlns="http://www.w3.org/2000/svg">
<path d="M469.692 543.678V806.924H808.307V543.678H469.692ZM764.09 614.077H737.864V587.851H764.09V614.077Z" fill="#3F3D56"/>
<path d="M441.292 543.678H0V612.493H441.292V543.678Z" fill="#3F3D56"/>
<path d="M441.292 640.894H0V709.709H441.292V640.894Z" fill="#3F3D56"/>
<path d="M441.292 738.109H0V806.924H441.292V738.109Z" fill="#3F3D56"/>
<path d="M61.8461 56H40V84.4H61.8461V56Z" fill="#5200FF"/>
<path d="M667.4 455.201V433.355H639V455.201H667.4Z" fill="#5200FF"/>
<path d="M310.172 640.894H441.292V709.709H270.444L310.172 640.894Z" fill="#80FFDB"/>
<path d="M254.038 738.109H441.292V806.925H214.311L254.038 738.109Z" fill="#80FFDB"/>
<path d="M324.274 385.241C322.394 383.356 320.527 381.409 318.725 379.453L320.68 377.652C322.458 379.584 324.3 381.505 326.155 383.365L324.274 385.241Z" fill="#3F3D56"/>
<path d="M366.698 84.7604C371.595 82.418 376.647 80.2534 381.714 78.3274L382.659 80.8103C377.659 82.7114 372.675 84.8466 367.845 87.1576L366.698 84.7604ZM397.211 73.1613C402.423 71.6613 407.763 70.3618 413.083 69.2979L413.604 71.9038C408.356 72.9526 403.088 74.2345 397.947 75.7143L397.211 73.1613ZM429.22 66.7634C434.599 66.1449 440.078 65.7423 445.507 65.5656L445.594 68.2217C440.237 68.395 434.83 68.7929 429.523 69.4029L429.22 66.7634ZM461.712 68.3517L461.841 65.6985C467.266 65.9623 472.739 66.4524 478.104 67.1546L477.759 69.7895C472.465 69.0962 467.066 68.6124 461.712 68.3518L461.712 68.3517ZM493.634 72.5368L494.194 69.9398C499.496 71.0849 504.814 72.4659 510.001 74.0448L509.227 76.5873C504.11 75.0289 498.863 73.6665 493.634 72.5368L493.634 72.5368ZM524.432 81.9165L525.414 79.4482C530.455 81.4536 535.475 83.6967 540.336 86.1149L539.152 88.4939C534.357 86.1078 529.404 83.895 524.432 81.9165L524.432 81.9165ZM523.527 445.885C528.503 443.932 533.462 441.744 538.269 439.382L539.441 441.767C534.569 444.161 529.541 446.379 524.498 448.358L523.527 445.885ZM553.277 96.2651L554.652 93.9922C559.29 96.7999 563.871 99.8379 568.269 103.022L566.711 105.173C562.372 102.032 557.852 99.0349 553.277 96.2651L553.277 96.2651ZM552.425 431.684C557.014 428.937 561.548 425.964 565.899 422.847L567.446 425.008C563.036 428.166 558.441 431.179 553.789 433.963L552.425 431.684ZM579.366 115.156L581.096 113.138C585.214 116.67 589.235 120.415 593.049 124.271L591.161 126.139C587.398 122.335 583.429 118.639 579.366 115.156ZM578.604 412.935C582.687 409.473 586.675 405.799 590.458 402.015L592.337 403.894C588.502 407.728 584.461 411.452 580.324 414.962L578.604 412.935ZM602.017 138.05L604.052 136.342C607.537 140.496 610.894 144.847 614.028 149.273L611.86 150.808C608.767 146.441 605.456 142.148 602.017 138.05L602.017 138.05ZM601.378 390.162C604.84 386.08 608.175 381.804 611.29 377.453L613.451 379C610.293 383.409 606.914 387.743 603.405 391.88L601.378 390.162ZM620.622 164.327L622.908 162.975C625.67 167.646 628.268 172.485 630.631 177.36L628.24 178.518C625.909 173.71 623.346 168.935 620.622 164.327ZM620.125 363.973C622.875 359.372 625.463 354.607 627.818 349.809L630.203 350.98C627.816 355.843 625.193 360.673 622.406 365.336L620.125 363.973ZM634.66 193.288L637.138 192.33C639.092 197.388 640.857 202.587 642.384 207.785L639.835 208.533C638.329 203.406 636.588 198.277 634.66 193.288ZM634.314 335.058C636.265 330.076 638.031 324.949 639.563 319.819L642.108 320.579C640.556 325.779 638.766 330.977 636.788 336.027L634.314 335.058ZM643.73 224.166L646.332 223.632C647.423 228.937 648.305 234.361 648.956 239.75L646.318 240.068C645.676 234.751 644.806 229.401 643.73 224.166ZM643.53 304.197C644.629 298.971 645.525 293.624 646.191 288.305L648.828 288.635C648.152 294.027 647.244 299.447 646.13 304.744L643.53 304.197ZM647.586 256.129L650.241 256.028C650.447 261.439 650.43 266.95 650.197 272.361L647.542 272.246C647.774 266.903 647.788 261.469 647.586 256.129V256.129Z" fill="#5200FF"/>
<path d="M639.617 157.545C638.44 155.197 637.198 152.84 635.926 150.541L638.251 149.255C639.54 151.585 640.799 153.974 641.991 156.354L639.617 157.545Z" fill="#3F3D56"/>
<path d="M710.873 806.924L586.733 591.914L558.879 543.678L494.564 432.263L462.592 376.894L430.62 432.263L366.305 543.678L338.451 591.914L326.567 612.493H441.292V543.678H469.692V806.924H710.873ZM551.585 696.087C554.738 696.087 557.82 697.022 560.442 698.774C563.063 700.525 565.106 703.015 566.313 705.928C567.52 708.841 567.835 712.047 567.22 715.139C566.605 718.231 565.087 721.072 562.857 723.301C560.628 725.531 557.787 727.049 554.695 727.664C551.602 728.279 548.397 727.964 545.484 726.757C542.571 725.551 540.081 723.507 538.33 720.886C536.578 718.264 535.643 715.182 535.643 712.029C535.648 707.802 537.329 703.75 540.318 700.762C543.306 697.773 547.358 696.092 551.585 696.087V696.087ZM459.631 486.678L441.743 467.5L460.921 449.612L478.809 468.79L459.631 486.678Z" fill="#80FFDB"/>
<path d="M442 337C450.837 337 458 329.837 458 321C458 312.163 450.837 305 442 305C433.163 305 426 312.163 426 321C426 329.837 433.163 337 442 337Z" fill="#80FFDB"/>
<path d="M457.528 128.73C432.071 133.634 408.641 145.976 390.199 164.196C371.757 182.417 359.132 205.696 353.921 231.092C348.709 256.487 351.146 282.858 360.922 306.868C370.697 330.879 387.374 351.452 408.842 365.985C430.31 380.518 455.605 388.358 481.529 388.515C507.453 388.672 532.842 381.138 554.484 366.865C576.126 352.593 593.05 332.224 603.116 308.333C613.181 284.442 615.936 258.103 611.032 232.647C607.776 215.744 601.223 199.648 591.747 185.279C582.27 170.909 570.056 158.546 555.802 148.897C541.548 139.247 525.533 132.5 508.671 129.039C491.809 125.579 474.431 125.474 457.528 128.73V128.73ZM445.252 336.574C442.156 337.17 438.953 336.835 436.047 335.611C433.142 334.387 430.664 332.328 428.929 329.696C427.193 327.064 426.276 323.976 426.295 320.823C426.315 317.67 427.268 314.594 429.036 311.983C430.803 309.372 433.305 307.344 436.225 306.155C439.146 304.966 442.353 304.67 445.442 305.303C448.53 305.937 451.361 307.473 453.577 309.716C455.793 311.959 457.295 314.808 457.891 317.904C458.686 322.055 457.801 326.352 455.432 329.852C453.063 333.352 449.402 335.769 445.252 336.574V336.574ZM533.581 220.257L507.829 225.217L502.868 199.465L528.62 194.504L533.581 220.257Z" fill="#5200FF"/>
<path d="M202.438 59.3354C218.086 72.3757 186.79 112.946 186.79 112.946C186.79 112.946 261.118 115.844 255.25 115.844C249.382 115.844 244.492 54.2641 244.492 54.2641C244.492 54.2641 186.79 46.2951 202.438 59.3354Z" fill="#FFB8B8"/>
<path d="M172.218 224.359L239.584 248.509L276.445 263.762C276.445 263.762 300.595 329.857 312.035 359.092C323.474 388.326 286.614 435.355 286.614 435.355C286.614 435.355 290.427 449.337 286.614 455.692C284.642 458.936 282.942 462.337 281.529 465.861C280.258 468.403 266.277 467.132 251.024 465.861C235.771 464.59 249.753 440.44 249.753 440.44C249.753 440.44 262.463 389.597 263.734 388.326C264.921 387.139 268.326 378.192 264.629 374.944C261.189 372.097 258.362 368.582 256.32 364.61C254.61 361.189 252.396 358.043 249.753 355.278C249.753 355.278 209.467 295.868 189.571 282.357C169.676 268.846 123.476 284.899 123.476 284.899C123.476 284.899 145.526 318.418 145.526 326.044C145.526 333.67 146.797 337.484 150.61 340.026C154.423 342.568 153.152 347.652 153.152 352.736C153.152 357.821 156.965 367.989 163.321 373.073C169.676 378.158 170.947 383.242 169.676 393.41C168.405 403.579 134.086 398.495 134.086 398.495L117.562 366.718C117.562 366.718 92.1411 326.044 75.6173 282.828C67.3554 261.22 75.935 246.603 86.5802 237.387C96.8373 228.687 110.037 224.246 123.467 224.976L183.216 227.702L140.441 215.462L172.218 224.359Z" fill="#3F3D56"/>
<path d="M394.654 111.235L467.104 78.1871C467.104 78.1871 492.526 34.971 477.273 29.8867C462.02 24.8025 449.309 68.0186 449.309 68.0186L397.196 78.1871L394.654 111.235Z" fill="#FFB8B8"/>
<path d="M107.394 134.114C107.394 134.114 70.533 167.161 69.262 170.975C67.9909 174.788 45.1118 184.956 34.9433 167.161C24.7748 149.366 57.8224 150.638 57.8224 150.638L80.7015 121.403L107.394 134.114Z" fill="#FFB8B8"/>
<path d="M70.0917 114.577L109.495 143.811L174.319 120.932C162.27 158.655 171.71 198.606 132.135 221.746L282.12 272.589C268.845 219.143 289.81 174.897 307.78 120.932C336.245 106.263 371.948 109.733 410.736 120.932V68.8188L253.125 77.7163L228.735 90.8269L199.74 82.8005C157.767 75.996 105.327 90.8668 70.0917 114.577Z" fill="#FE5A26"/>
<path d="M167.134 392.14C170.947 394.682 177.302 418.832 178.573 427.729C179.844 436.627 168.405 440.44 162.05 441.711C155.694 442.982 156.965 446.795 153.152 450.608C149.339 454.422 135.357 455.693 116.291 451.88C97.2254 448.066 125.189 423.916 127.731 422.645C130.273 421.374 137.899 392.14 137.899 392.14C137.899 392.14 163.321 389.597 167.134 392.14Z" fill="#3A3847"/>
<path d="M272.632 462.048L282.8 488.74L292.415 503.162C295.033 507.007 296.799 511.368 297.595 515.952C298.391 520.535 298.199 525.236 297.031 529.739C295.412 535.699 292.055 541.33 285.342 543.396C268.819 548.48 258.65 516.703 258.65 516.703C258.65 516.703 249.753 498.909 243.397 482.385C237.042 465.861 248.482 456.964 248.482 456.964L272.632 462.048Z" fill="#3A3847"/>
<path d="M223.882 75.4603C240.727 75.4603 254.382 61.8049 254.382 44.9601C254.382 28.1153 240.727 14.4599 223.882 14.4599C207.037 14.4599 193.382 28.1153 193.382 44.9601C193.382 61.8049 207.037 75.4603 223.882 75.4603Z" fill="#FFB8B8"/>
<path d="M258.457 37.4227C259.804 33.5755 260.324 29.4877 259.985 25.4259C259.646 21.364 258.455 17.4191 256.49 13.8483C252.572 6.9002 245.027 0.387081 230.522 0.0197187C198.874 -0.781813 185.161 23.0799 186.944 30.077C188.727 37.0742 195.106 53.7221 195.106 53.7221C195.106 53.7221 191.15 37.6916 199.062 36.0885C206.974 34.4854 237.632 28.0732 246.533 35.287C249.071 37.2307 251.049 39.8123 252.265 42.7691C253.481 45.7258 253.892 48.952 253.456 52.1191L258.457 37.4227Z" fill="#2F2E41"/>
<path d="M739.753 234.59L737.581 200.621L768.228 219.094L739.753 234.59Z" fill="#5200FF"/>
<path d="M61.1794 490.099L92.0542 504.428L61.1794 522.517L61.1794 490.099Z" fill="#5200FF"/>
<rect x="502.854" y="199.352" width="26.485" height="27.1404" transform="rotate(-10.9299 502.854 199.352)" fill="#FE5A26"/>
</svg>
