<svg id="Javelin_-_Final" data-name="Javelin - Final" xmlns="http://www.w3.org/2000/svg" viewBox="0 0 814.36 550.12"><defs><style>.cls-1{fill:#fe5a26;}.cls-2{fill:#59d3c8;}</style></defs><path class="cls-1" d="M620.43,423.63c-34.86,0-70.49-31.71-84.3-78.09C520.19,292,539.23,239,578.57,227.25s84.3,22.29,100.25,75.78h0c15.94,53.5-3.1,106.57-42.44,118.29A55.7,55.7,0,0,1,620.43,423.63ZM594.61,247a33.92,33.92,0,0,0-9.75,1.41c-27.23,8.11-39.88,49.73-27.62,90.88s45.63,69.07,72.85,61S670,350.47,657.7,309.32h0C646.88,273,619.6,247,594.61,247Z" transform="translate(-50.9 -224.94)"/><path class="cls-1" d="M555.93,449c-39.1,17.24-100.8,20.16-134.7-4.49-17.81-13-23.79-34.57-33.93-53.72C375.4,368.26,371,338,347.49,325.88c-22.86-11.83-43.15,22.72-20.22,34.59,22.05,11.4,30.33,38,42.19,58.18,13.2,22.51,29.83,32.16,53.66,42.8,51.28,22.89,103.85,43.79,153,22.11,9.9-4.36,12.21-18.82,7.19-27.4-6-10.21-17.47-11.57-27.4-7.19Z" transform="translate(-50.9 -224.94)"/><path class="cls-1" d="M694.67,479.76c14-3.9,25.08-4.94,40.73-3.64,4.78.39,35.41,8.85,35.58,8.93,43.53,20,49.5,32.34,62,57.7,4.77,9.71,18.55,12.37,27.4,7.19,9.9-5.79,2.55-7.82-2.23-17.56-15.09-30.72-40.87-40-71.17-54.91-34.53-17-71.46-39.12-108.86-28.74-24.81,6.87-8.33,37.94,16.59,31Z" transform="translate(-50.9 -224.94)"/><path class="cls-1" d="M584.26,583.79c-17.87,42.13-45.59,77.13-80.08,100.1-38.91,25.92-92.73,29.49-138.37,39.93-25.12,5.75-14.49,44.38,10.65,38.63a415.82,415.82,0,0,0,134.23-57.13A426.23,426.23,0,0,0,618.85,604c6.5-8.66,1.4-22.38-7.18-27.4-10.24-6-20.9-1.5-27.41,7.18Z" transform="translate(-50.9 -224.94)"/><path class="cls-1" d="M663.7,587.66c32.48,15.61,59.23,18.59,81.3,47.69,20.85,27.49,37.42,80.58,29.2,114.75-6,25,32.59,35.74,38.62,10.65,10.54-43.8-7.68-58-33.89-94.3-25.9-35.86-55.47-94.37-95-113.38-9.75-4.69-21.64-2.68-27.41,7.18-5.12,8.76-2.6,22.7,7.19,27.41Z" transform="translate(-50.9 -224.94)"/><path class="cls-2" d="M50.9,430.39q78.5-29.88,157.92-56.85c52.88-18.2,106.05-35.49,159.28-52.62,53.31-16.84,106.69-33.49,160.34-49.25q80.38-24,161.72-45-78.49,29.91-157.92,56.88c-52.88,18.19-106,35.49-159.28,52.6C319.64,353,266.26,369.65,212.6,385.41Q132.21,409.37,50.9,430.39Z" transform="translate(-50.9 -224.94)"/></svg>