<svg width="256" height="99" viewBox="0 0 256 99" fill="none" xmlns="http://www.w3.org/2000/svg">
<g clip-path="url(#clip0)">
<path d="M256.051 50.9075C254.981 58.4092 254.267 67.4648 252.228 76.2401C249.526 88.2124 241.6 95.3447 229.405 97.5736C218.973 99.5787 208.245 99.4791 197.852 97.2807C185.848 94.7334 178.737 86.9515 175.972 75.2212C172.286 58.8846 172.134 41.9495 175.526 25.5493C178.279 11.5393 186.855 3.146 201.166 1.04449C210.95 -0.50906 220.933 -0.293361 230.641 1.68131C244.659 4.64889 251.234 14.3285 253.451 27.5234C254.7 34.694 255.083 42.0302 256.051 50.9075ZM195.151 49.7357C195.877 56.1039 196.272 62.816 197.483 69.388C198.91 77.1572 203.013 81.0418 210.507 81.8824C222.829 83.2706 229.214 79.5261 231.278 69.146C233.887 56.1142 233.887 42.6949 231.278 29.6631C229.609 21.2062 225.34 17.4999 216.827 16.9268C205.167 16.0734 199.063 19.9453 197.203 30.8349C196.158 36.9484 195.801 43.1637 195.113 49.7357H195.151Z" fill="white"/>
<path d="M134.327 11.4883H152.576V14.9144C152.576 34.1633 152.576 53.4122 152.576 72.6611C152.576 74.0749 152.384 75.5014 152.41 76.9151C152.512 81.3347 154.283 83.2197 158.629 83.6272C164.605 84.1749 164.605 84.1749 165.65 90.2374C165.956 92.046 166.275 93.8418 166.67 96.0197C161.264 98.1001 155.451 98.9063 149.683 98.3759C139.284 97.3952 134.391 91.6639 134.391 81.1945V11.4883H134.327Z" fill="white"/>
<path d="M61.4354 96.9494H47.7874V32.9363H61.2443V57.1354C63.0793 56.0274 64.8506 54.8684 66.6984 53.8749C71.9359 51.0602 77.441 49.5319 83.4431 50.8182C88.4257 51.8881 91.7772 54.8557 91.9174 59.8865C92.2487 72.1772 92.0321 84.4805 92.0321 96.9367H78.5242C78.5242 95.8541 78.3713 94.7715 78.3713 93.7016C78.3713 85.0536 78.3713 76.3929 78.3713 67.7449C78.3713 62.8541 76.5617 61.3767 71.7193 62.1154C71.2095 62.1918 70.7253 62.3446 70.2283 62.4592C61.9324 64.306 61.4609 64.8792 61.4609 73.1197L61.4354 96.9494Z" fill="white"/>
<path d="M0 77.5264C0.203893 75.565 0.280335 73.1069 0.739094 70.7252C2.19183 63.2617 5.42865 59.6827 12.909 58.6638C17.6399 58.1017 22.4231 58.1445 27.1432 58.7912C33.5148 59.5809 37.6054 63.5673 38.2936 69.961C38.8627 75.1919 38.8841 80.4678 38.3573 85.7032C37.6819 92.2242 33.4766 96.2744 27.0158 97.0513C22.1896 97.6821 17.3018 97.6821 12.4757 97.0513C5.04632 96.0197 1.41451 91.5874 0.446023 83.78C0.216644 81.9205 0.165663 79.9336 0 77.5264ZM27.4363 77.7047C27.1942 75.7816 27.0795 73.6418 26.6589 71.553C25.9326 67.834 23.7535 66.3057 19.5864 66.3312C15.4194 66.3566 13.1001 67.9869 12.6923 71.7569C12.2867 75.5864 12.244 79.4457 12.5649 83.2833C12.9472 87.8302 14.9224 89.3585 19.3061 89.4604C24.0976 89.5623 26.0473 88.034 26.8374 83.3852C27.1432 81.5894 27.2197 79.7553 27.4363 77.7047Z" fill="white"/>
<path d="M119.953 96.8985H104.406V44.3608H119.953V96.8985Z" fill="white"/>
<path d="M112.052 36.1713C104.406 36.1713 103.871 35.5727 103.871 28.0964C103.871 21.5371 104.75 20.6838 111.517 20.6838C120.144 20.6838 120.373 20.9003 120.373 28.9497C120.36 35.6745 119.774 36.1713 112.052 36.1713Z" fill="white"/>
</g>
<defs>
<clipPath id="clip0">
<rect width="256" height="99" fill="white"/>
</clipPath>
</defs>
</svg>
