<svg width="4979" height="4175" viewBox="0 0 4979 4175" fill="none" xmlns="http://www.w3.org/2000/svg">
<path d="M3693.69 1438.68C3055.33 1212.03 2480.92 1505.15 1936.18 1764.36L1507.62 1977.85L1503.94 1976.54C1164.94 2143.31 763.607 2348.31 380.529 2321.93L227.105 2754.06C224.993 2759.85 224.224 2766.05 224.857 2772.19C225.49 2778.32 227.508 2784.23 230.759 2789.48C234.01 2794.72 238.408 2799.15 243.623 2802.45C248.838 2805.74 254.733 2807.81 260.863 2808.49C776.965 2866.88 1252.24 2627.01 1706.72 2410.63L2136.73 2199.39C2545.22 1998.58 3045.06 1740.89 3494.31 1900.4C3880.52 2037.52 4060.64 2430.02 3917.98 2831.81C3786.45 3202.29 3372.26 3419.14 2978.14 3279.21C2727.91 3190.37 2561.45 2992.93 2428.13 2767.92C2424.74 2769.92 2421.3 2771.81 2417.48 2773.56L1990.91 2976.6C2182.81 3312.76 2427.62 3615.83 2802.62 3748.97C3496.19 3995.22 4193.48 3630.47 4414.56 3007.78C4655.08 2330.33 4363.99 1676.66 3693.69 1438.68Z" fill="#80FFDB"/>
<path d="M326.528 2565.6L261.299 2808.74C131.603 2773.93 54.7349 2635.62 90.2866 2502.13C125.838 2368.63 262.318 2287.66 391.986 2322.54L326.528 2565.6Z" fill="#80FFDB"/>
<path d="M2215.7 2882.63L2003.83 3001.34C1996.59 2988.05 1990.53 2974.16 1985.72 2959.81C1941.99 2829.46 2009.82 2687.37 2135.94 2645.08C2254.53 2605.22 2386.55 2666.36 2437.83 2784.95L2215.7 2882.63Z" fill="#80FFDB"/>
<circle cx="2305" cy="925.145" r="427.756" transform="rotate(19.5471 2305 925.145)" fill="#FE5A26"/>
</svg>
