<svg width="10304" height="8158" viewBox="0 0 10304 8158" fill="none" xmlns="http://www.w3.org/2000/svg">
<path d="M725.345 4657.5C1614.98 4718.76 2546.86 4243.6 3334.72 3856.01C3336 3855.38 3337.39 3855.02 3338.82 3854.93C3340.25 3854.85 3341.67 3855.05 3343.02 3855.53V3855.53C3344.38 3856.01 3345.82 3856.21 3347.26 3856.13C3348.7 3856.05 3350.1 3855.67 3351.4 3855.04L4344.3 3360.41C5611.54 2757.41 6947.8 2075.51 8432.84 2602.78C9992.18 3156.44 10669.3 4677.05 10109.8 6253.02C9595.63 7701.67 7973.46 8550.13 6359.99 7977.27C5487.8 7667.61 4918.36 6962.8 4471.99 6180.99C4471.79 6180.65 4471.61 6180.29 4471.45 6179.92C4351.18 5907.37 4442.23 5597.53 4659.75 5454.29C4918.85 5283.66 5316.7 5376.22 5488.8 5695.02C5798.95 6218.45 6186.19 6677.78 6768.28 6884.45C7685.13 7209.97 8648.68 6705.51 8954.66 5843.65C9286.56 4908.96 8867.49 3995.83 7969.09 3676.89C6923.98 3305.82 5761.19 3905.29 4810.91 4372.46L3810.59 4863.87C2771.19 5358.73 1685.05 5906.42 507.856 5795.73C507.364 5795.68 506.874 5795.6 506.391 5795.5C215.297 5729.99 10.1152 5496.96 0.367839 5256.26C-12.4037 4941.62 308.932 4619.28 725.345 4657.5Z" fill="#80FFDB"/>
<path d="M5906.02 2111.77C6294.63 1723.15 6294.63 1093.08 5906.02 704.47C5517.41 315.856 4887.34 315.856 4498.72 704.47C4110.11 1093.08 4110.11 1723.15 4498.72 2111.77C4887.34 2500.38 5517.41 2500.38 5906.02 2111.77Z" fill="#FE5A26"/>
</svg>
