<svg width="2204" height="1517" viewBox="0 0 2204 1517" fill="none" xmlns="http://www.w3.org/2000/svg">
<path d="M1578.47 232.074C1226.82 232.074 996.739 475.229 775.282 696.644L602.718 875.51H600.688C463.82 1015.97 303.099 1185.96 111.121 1239.59V1477.62C111.095 1480.83 111.795 1483.99 113.171 1486.88C114.546 1489.77 116.56 1492.32 119.061 1494.32C121.561 1496.32 124.483 1497.72 127.607 1498.43C130.73 1499.13 133.973 1499.12 137.09 1498.39C399.701 1437.32 590.537 1237.43 775.282 1052.64L948.946 874.622C1113.9 705.441 1313.66 492.57 1561.13 492.57C1773.87 492.57 1930.15 653.291 1930.15 874.622C1930.15 1078.7 1765.2 1256.72 1548.1 1256.72C1410.26 1256.72 1294.54 1189.04 1190.24 1102.13C1188.93 1103.69 1187.57 1105.21 1186.01 1106.74L1012.6 1280.15C1164.86 1411.26 1337.26 1517 1543.83 1517C1925.88 1517 2203.63 1217.47 2203.63 874.452C2203.63 501.282 1947.7 232.074 1578.47 232.074Z" fill="#80FFDB"/>
<path d="M127.025 1368.17L137.345 1498.43C67.8541 1503.93 6.23014 1449.63 0.435703 1378.15C-5.35873 1306.67 47.3411 1243.35 116.832 1237.9L127.025 1368.17Z" fill="#80FFDB"/>
<path d="M1106.24 1195.13L1023.22 1290C1017.37 1284.76 1011.99 1279.01 1007.14 1272.83C963.115 1216.66 971.617 1135.37 1025.97 1092.78C1077.06 1052.68 1152.26 1059.66 1197.94 1108.77L1106.24 1195.13Z" fill="#80FFDB"/>
<circle cx="809.952" cy="222.049" r="222.049" fill="#FE5A26"/>
</svg>
