<svg width="326" height="100" viewBox="0 0 326 100" fill="none" xmlns="http://www.w3.org/2000/svg">
<rect width="326" height="100" rx="10" fill="white"/>
<path fill-rule="evenodd" clip-rule="evenodd" d="M213.784 37.3752C213.784 38.1508 214.039 38.753 214.549 39.1813C215.058 39.6105 215.6 39.8243 216.174 39.8243C216.747 39.8243 217.284 39.6557 217.785 39.3179C218.286 38.9806 218.691 38.8117 219.001 38.8117C219.547 38.8117 220.212 39.2954 220.994 40.2621C221.413 40.7917 221.622 41.2658 221.622 41.6852C221.622 42.3787 221.121 43.0261 220.12 43.6282C219.083 44.358 217.808 44.7229 216.297 44.7229C214.604 44.7229 212.974 44.1119 211.409 42.8894C210.662 42.3055 210.052 41.5255 209.579 40.5492C209.105 39.5735 208.869 38.497 208.869 37.3204C208.869 36.1438 209.105 35.0765 209.579 34.1186C210.052 33.1611 210.662 32.3904 211.409 31.8061C212.919 30.6021 214.531 30 216.242 30C216.934 30 217.608 30.096 218.263 30.2874C218.919 30.4791 219.401 30.6661 219.711 30.8486L220.148 31.1221C220.475 31.3412 220.73 31.5144 220.913 31.6421C221.386 32.007 221.622 32.4218 221.622 32.8873C221.622 33.3525 221.431 33.8768 221.049 34.4605C220.393 35.4641 219.765 35.9657 219.164 35.9657C218.818 35.9657 218.327 35.7654 217.69 35.3638C217.362 35.0537 216.893 34.8986 216.283 34.8986C215.673 34.8986 215.105 35.1174 214.576 35.5552C214.048 35.993 213.784 36.5998 213.784 37.3752" fill="#0C0D14"/>
<path fill-rule="evenodd" clip-rule="evenodd" d="M233.174 30.3288C233.52 30.438 233.807 30.6257 234.035 30.8897C234.262 31.1546 234.376 31.5786 234.376 32.1623C234.376 32.746 234.203 33.3847 233.858 34.0779C233.511 34.7711 233.011 35.1176 232.356 35.1176C232.028 35.1176 231.714 35.045 231.413 34.8991C231.113 34.753 230.717 34.6801 230.225 34.6801C229.734 34.6801 229.273 34.8536 228.846 35.1997C228.418 35.5468 228.204 35.9659 228.204 36.4585V42.2057C228.204 42.6253 228.19 42.9398 228.163 43.1496C228.136 43.3598 228.049 43.601 227.904 43.8745C227.63 44.349 226.921 44.5862 225.774 44.5862C224.9 44.5862 224.271 44.4314 223.889 44.121C223.598 43.8659 223.433 43.4736 223.397 42.9444V42.1509V32.5454C223.397 32.126 223.411 31.8112 223.438 31.6014C223.466 31.3919 223.543 31.1592 223.671 30.9033C223.925 30.411 224.635 30.1645 225.801 30.1645C226.893 30.1645 227.576 30.3743 227.849 30.794C228.049 31.086 228.149 31.3869 228.149 31.6968C228.241 31.5694 228.372 31.4143 228.546 31.2319C228.718 31.0497 229.087 30.8033 229.651 30.4928C230.215 30.183 230.712 30.0276 231.14 30.0276C231.568 30.0276 231.927 30.051 232.219 30.0962C232.51 30.142 232.829 30.2193 233.174 30.3288" fill="#0C0D14"/>
<path fill-rule="evenodd" clip-rule="evenodd" d="M239.429 37.3889C239.429 37.9908 239.665 38.5338 240.139 39.0169C240.612 39.5006 241.186 39.7418 241.859 39.7418C242.532 39.7418 243.093 39.496 243.539 39.003C243.985 38.5108 244.207 37.968 244.207 37.3751C244.207 36.7822 243.994 36.2302 243.566 35.7191C243.138 35.209 242.565 34.953 241.846 34.953C241.126 34.953 240.544 35.209 240.098 35.7191C239.652 36.2302 239.429 36.7868 239.429 37.3889M244.399 31.6965C244.508 30.6753 245.227 30.1642 246.556 30.1642C247.267 30.1642 247.794 30.2187 248.14 30.3285C248.486 30.4378 248.727 30.6295 248.864 30.903C249.001 31.1768 249.083 31.419 249.11 31.6282C249.137 31.838 249.151 32.1528 249.151 32.5725V42.1506C249.151 42.57 249.137 42.8848 249.11 43.0943C249.083 43.3045 249.005 43.546 248.878 43.8195C248.623 44.2943 248 44.5312 247.007 44.5312C246.015 44.5312 245.35 44.4078 245.013 44.162C244.677 43.9155 244.481 43.5555 244.426 43.0808C243.752 44.0481 242.628 44.5312 241.054 44.5312C239.479 44.5312 238.017 43.8106 236.67 42.3694C235.323 40.9282 234.649 39.2541 234.649 37.3477C234.649 35.4416 235.328 33.7721 236.684 32.3399C238.04 30.9079 239.528 30.1913 241.149 30.1913C241.768 30.1913 242.333 30.3012 242.843 30.5199C243.352 30.739 243.707 30.9442 243.908 31.1359C244.107 31.3273 244.271 31.5144 244.399 31.6965" fill="#0C0D14"/>
<path fill-rule="evenodd" clip-rule="evenodd" d="M258.518 39.7696H263.188C263.916 39.7696 264.44 39.861 264.758 40.0431C265.076 40.2256 265.291 40.4905 265.4 40.837C265.51 41.1837 265.564 41.6397 265.564 42.2052C265.564 42.7707 265.51 43.227 265.4 43.5732C265.291 43.9199 265.1 44.1618 264.827 44.2987C264.553 44.4353 264.312 44.5175 264.103 44.5448C263.894 44.5719 263.579 44.5858 263.161 44.5858H253.302C252.664 44.5858 252.109 44.3489 251.636 43.8744C251.162 43.4006 250.926 42.8344 250.926 42.1778C250.926 41.5206 251.162 40.96 251.636 40.4945C252.109 40.0296 252.838 39.3592 253.82 38.4832C254.804 37.6078 255.696 36.8189 256.497 36.1165C257.298 35.4144 257.735 35.0264 257.808 34.9531H253.957C252.92 34.9531 252.264 34.7802 251.991 34.4332C251.681 34.0322 251.527 33.5027 251.527 32.8461C251.527 32.1892 251.572 31.7012 251.664 31.3822C251.755 31.0631 251.863 30.8256 251.991 30.6705C252.118 30.5157 252.3 30.3927 252.537 30.3013C252.846 30.2102 253.32 30.1641 253.957 30.1641H262.833C263.47 30.1641 264.026 30.3927 264.499 30.8487C264.972 31.3046 265.209 31.8748 265.209 32.5588C265.209 33.2427 264.936 33.8495 264.39 34.3787C263.844 34.9079 261.886 36.7045 258.518 39.7696" fill="#0C0D14"/>
<path fill-rule="evenodd" clip-rule="evenodd" d="M273.73 44.5313C271.891 44.5313 270.366 43.8331 269.156 42.4378C267.945 41.0421 267.339 39.3413 267.339 37.3339V32.5452C267.339 32.1073 267.353 31.7883 267.38 31.5877C267.408 31.3867 267.485 31.1498 267.612 30.876C267.867 30.3837 268.577 30.1372 269.743 30.1372C271.016 30.1372 271.764 30.484 271.982 31.1769C272.091 31.4689 272.146 31.9341 272.146 32.5725V37.3613C272.146 38.1096 272.36 38.6933 272.788 39.113C273.215 39.5329 273.788 39.7422 274.508 39.7422C275.227 39.7422 275.809 39.5234 276.256 39.0856C276.702 38.6477 276.925 38.073 276.925 37.3613V32.5178C276.925 32.0984 276.939 31.7836 276.966 31.5738C276.994 31.3643 277.08 31.1221 277.226 30.8486C277.462 30.3742 278.163 30.1372 279.328 30.1372C280.475 30.1372 281.176 30.3837 281.431 30.876C281.558 31.1498 281.636 31.3917 281.663 31.6012C281.691 31.811 281.705 32.1258 281.705 32.5452V42.2326C281.705 42.5055 281.698 42.7341 281.686 42.9184C281.68 43.0051 281.705 47.2133 281.663 47.8161C281.649 48.0271 281.55 48.2585 281.404 48.5136C281.131 48.9883 280.43 49.2256 279.302 49.2256C278.191 49.2256 277.508 49.0062 277.253 48.5684C277.107 48.3204 277.019 48.0311 276.99 47.701C276.983 47.6185 276.98 42.8673 276.98 42.7799C276.907 42.9076 276.743 43.0901 276.488 43.3273C276.233 43.5645 275.987 43.7648 275.751 43.9294C275.131 44.3309 274.458 44.5313 273.73 44.5313" fill="#0C0D14"/>
<path fill-rule="evenodd" clip-rule="evenodd" d="M213.539 57.3321C213.539 57.925 213.771 58.4586 214.235 58.933C214.699 59.4075 215.263 59.6447 215.928 59.6447C216.593 59.6447 217.143 59.4025 217.58 58.9192C218.018 58.4361 218.236 57.9069 218.236 57.3321C218.236 56.7574 218.026 56.2196 217.608 55.7174C217.189 55.2159 216.625 54.9648 215.914 54.9648C215.205 54.9648 214.631 55.211 214.194 55.7036C213.757 56.1968 213.539 56.7395 213.539 57.3321V57.3321ZM218.4 62.9283C217.708 63.8406 216.606 64.2965 215.095 64.2965C213.584 64.2965 212.168 63.5987 210.848 62.2031C209.528 60.8074 208.869 59.1795 208.869 57.3183C208.869 55.4574 209.533 53.8252 210.862 52.42C212.191 51.0154 213.648 50.313 215.232 50.313C215.85 50.313 216.415 50.4271 216.925 50.6551C217.435 50.8831 217.785 51.093 217.976 51.2843C218.167 51.4757 218.317 51.6539 218.427 51.8179C218.482 51.3074 218.668 50.9194 218.987 50.6551C219.305 50.3905 219.82 50.2582 220.53 50.2582C221.24 50.2582 221.759 50.313 222.086 50.4222C222.414 50.5317 222.646 50.7191 222.783 50.9831C222.92 51.248 223.002 51.4803 223.029 51.6809C223.056 51.8822 223.07 52.192 223.07 52.6114V63.9409C223.07 66.0386 222.342 67.7312 220.885 69.0173C219.429 70.3034 217.789 70.9465 215.969 70.9465C214.586 70.9465 213.265 70.6086 212.009 69.9339C210.753 69.2588 210.125 68.6475 210.125 68.1004C210.125 67.3891 210.398 66.7598 210.945 66.2122C211.29 65.8288 211.559 65.5645 211.75 65.4187C211.941 65.2725 212.164 65.1996 212.419 65.1996C212.674 65.1996 212.938 65.3091 213.211 65.5279C214.085 66.2026 215.031 66.5405 216.051 66.5405C216.743 66.5405 217.307 66.2669 217.744 65.7199C218.181 65.1722 218.4 64.5156 218.4 63.7492V62.9283Z" fill="#0C0D14"/>
<path fill-rule="evenodd" clip-rule="evenodd" d="M229.624 57.5372C229.624 58.1393 229.861 58.6824 230.335 59.1655C230.808 59.6488 231.381 59.8904 232.055 59.8904C232.729 59.8904 233.289 59.6445 233.735 59.1516C234.181 58.659 234.404 58.1166 234.404 57.5234C234.404 56.9308 234.189 56.3785 233.762 55.8677C233.334 55.3573 232.76 55.1016 232.042 55.1016C231.322 55.1016 230.739 55.3573 230.294 55.8677C229.847 56.3785 229.624 56.9354 229.624 57.5372M234.595 51.8451C234.704 50.8239 235.423 50.3128 236.753 50.3128C237.462 50.3128 237.991 50.3673 238.337 50.4768C238.682 50.5863 238.924 50.7777 239.06 51.0516C239.197 51.3254 239.278 51.5672 239.306 51.7765C239.334 51.9866 239.347 52.3014 239.347 52.7207V62.2989C239.347 62.7186 239.334 63.0333 239.306 63.2429C239.278 63.4527 239.201 63.6945 239.074 63.9681C238.819 64.4425 238.195 64.6797 237.203 64.6797C236.21 64.6797 235.546 64.5561 235.209 64.3102C234.872 64.0638 234.677 63.7038 234.622 63.2293C233.949 64.1964 232.824 64.6797 231.249 64.6797C229.674 64.6797 228.213 63.9588 226.866 62.5177C225.518 61.0765 224.846 59.4024 224.846 57.496C224.846 55.5899 225.523 53.9207 226.88 52.4881C228.236 51.0565 229.725 50.3399 231.345 50.3399C231.964 50.3399 232.528 50.4494 233.038 50.6682C233.548 50.8876 233.903 51.0928 234.103 51.2842C234.304 51.4755 234.467 51.6629 234.595 51.8451" fill="#0C0D14"/>
<path fill-rule="evenodd" clip-rule="evenodd" d="M246.229 52.2281C247.084 50.9331 248.113 50.2854 249.315 50.2854C251.172 50.2854 252.555 51.0789 253.466 52.6662C253.666 52.3924 253.907 52.1053 254.189 51.8041C254.472 51.5032 254.922 51.1743 255.541 50.8189C256.16 50.4632 256.798 50.2854 257.453 50.2854C258.91 50.2854 260.129 50.8463 261.112 51.9681C262.096 53.0902 262.587 54.9468 262.587 57.5372V62.3259C262.587 62.7462 262.573 63.0607 262.546 63.2702C262.519 63.4801 262.432 63.7216 262.287 63.9954C262.05 64.488 261.349 64.7342 260.184 64.7342C259.037 64.7342 258.336 64.4788 258.081 63.9681C257.954 63.6945 257.876 63.4524 257.849 63.2428C257.822 63.0333 257.808 62.7186 257.808 62.2986V57.5095C257.808 55.9228 257.244 55.1289 256.115 55.1289C255.477 55.1289 255.045 55.3388 254.818 55.7585C254.589 56.1781 254.476 56.7707 254.476 57.5372V62.3259C254.476 62.7638 254.462 63.0832 254.436 63.2838C254.408 63.485 254.321 63.7216 254.176 63.9954C253.921 64.488 253.21 64.7342 252.045 64.7342C250.899 64.7342 250.198 64.4788 249.943 63.9681C249.815 63.6945 249.738 63.4524 249.711 63.2428C249.684 63.0333 249.669 62.7186 249.669 62.2986V57.5095C249.669 55.9228 249.105 55.1289 247.976 55.1289C246.884 55.1289 246.338 55.9228 246.338 57.5095V62.3533C246.338 62.7733 246.324 63.0878 246.297 63.2976C246.27 63.5074 246.183 63.749 246.038 64.0225C245.764 64.4973 245.054 64.7342 243.907 64.7342C242.76 64.7342 242.059 64.488 241.804 63.9954C241.677 63.7216 241.599 63.485 241.572 63.2838C241.545 63.0832 241.531 62.7638 241.531 62.3259V52.6933C241.531 52.274 241.545 51.9592 241.572 51.749C241.599 51.5398 241.685 51.3072 241.831 51.0515C242.104 50.5589 242.751 50.3125 243.77 50.3125C244.79 50.3125 245.454 50.4768 245.764 50.8051C246.073 51.1337 246.229 51.6081 246.229 52.2281" fill="#0C0D14"/>
<path fill-rule="evenodd" clip-rule="evenodd" d="M280.53 63.4481C280.184 63.2293 280.011 62.8829 280.011 62.4081C280.011 61.934 280.357 61.2134 281.049 60.2463C281.249 59.9362 281.572 59.7811 282.018 59.7811C282.465 59.7811 283.07 60.0048 283.834 60.4518C284.599 60.8989 285.291 61.122 285.91 61.122C287.021 61.122 287.576 60.9032 287.576 60.4654C287.576 60.1189 286.965 59.8633 285.746 59.6989C284.599 59.5346 283.461 59.1064 282.333 58.4128C281.804 58.0842 281.367 57.5695 281.021 56.8667C280.676 56.1646 280.502 55.3299 280.502 54.3628C280.502 51.4804 282.478 50.0389 286.429 50.0389C287.722 50.0389 289.051 50.3494 290.416 50.9691C291.053 51.2617 291.372 51.6263 291.372 52.0641C291.372 52.5019 291.172 53.0404 290.771 53.6788C290.37 54.3173 289.961 54.6363 289.542 54.6363C289.324 54.6363 288.918 54.4994 288.327 54.2256C287.735 53.9524 287.093 53.8154 286.402 53.8154C285.327 53.8154 284.79 54.0164 284.79 54.4176C284.79 54.9646 285.409 55.3206 286.647 55.4846C287.849 55.6126 289.014 55.9594 290.143 56.5246C290.671 56.7803 291.113 57.2224 291.468 57.8519C291.823 58.4808 292 59.2707 292 60.2192C292 61.1678 291.823 61.9749 291.468 62.6407C291.113 63.3071 290.617 63.8037 289.979 64.1324C288.814 64.6979 287.353 64.9806 285.596 64.9806C283.839 64.9806 282.15 64.4699 280.53 63.4481" fill="#0C0D14"/>
<path fill-rule="evenodd" clip-rule="evenodd" d="M272.883 56.6066C273.575 56.6066 273.921 56.3149 273.921 55.7306C273.921 55.3116 273.761 54.974 273.443 54.7183C273.125 54.463 272.67 54.3353 272.078 54.3353C271.486 54.3353 270.899 54.5771 270.317 55.0605C269.733 55.5442 269.443 56.0595 269.443 56.6066H272.883ZM278.646 55.7992C278.646 56.9214 278.368 57.7521 277.813 58.2896C277.257 58.8281 276.643 59.097 275.969 59.097H269.497C269.497 59.608 269.797 60.0366 270.398 60.3831C270.999 60.7298 271.599 60.9031 272.2 60.9031C273.257 60.9031 274.085 60.7935 274.686 60.5745L274.987 60.4652C275.423 60.2646 275.787 60.1643 276.079 60.1643C276.661 60.1643 277.162 60.5745 277.581 61.3957C277.817 61.8883 277.936 62.3083 277.936 62.6544C277.936 64.2787 275.997 65.0897 272.119 65.0897C270.771 65.0897 269.575 64.8571 268.528 64.3922C267.48 63.927 266.666 63.311 266.083 62.5449C264.936 61.0671 264.363 59.4164 264.363 57.5918C264.363 55.2931 265.104 53.4556 266.588 52.0775C268.072 50.7006 269.924 50.0114 272.146 50.0114C274.676 50.0114 276.534 50.9058 277.717 52.6932C278.336 53.6421 278.646 54.6774 278.646 55.7992V55.7992Z" fill="#0C0D14"/>
<path d="M197.159 37.95C197.243 34.3447 197.033 28.062 194.763 25.4409C193.52 24.0052 190.563 26.4075 188.65 28.263C185.48 26.7073 181.585 25.9418 176.849 25.9418C172.112 25.9418 168.221 26.7109 165.054 28.263C163.134 26.404 160.181 24.0016 158.937 25.4374C156.671 28.0549 156.457 34.3165 156.541 37.9253C155.518 40.7474 155 44.0422 155 47.8062C155 55.7152 157.249 61.5711 161.68 65.2363C164.665 67.6986 168.564 69.1167 173.531 69.5436C172.95 69.8364 172.347 70.1221 171.727 70.4431L169.927 71.3321L168.904 71.8365C167.912 72.3586 166.889 72.8208 165.789 73.5016L165.516 73.6462C165.439 73.7027 165.366 73.7979 165.352 73.9038C165.317 74.1048 165.453 74.2953 165.653 74.3235C166.655 74.4752 167.646 74.6728 168.662 74.761L169.419 74.8456C169.667 74.8739 169.92 74.895 170.175 74.9091L171.696 74.9938C173.731 75.0291 175.78 74.9162 177.812 74.5952C179.84 74.2883 181.833 73.7168 183.75 72.9231C185.655 72.1293 187.48 71.0957 189.13 69.8364C192.402 67.2788 194.973 63.8358 196.504 59.9978C197.065 58.6079 197.482 57.1651 197.783 55.7011C198.389 53.3517 198.697 50.72 198.697 47.8062C198.697 44.0563 198.179 40.7686 197.163 37.95H197.159Z" fill="#6842FF"/>
<path d="M185.557 68.5699C183.038 69.3108 180.148 69.6776 176.845 69.6776H176.838C176.526 69.6776 176.204 69.6741 175.882 69.6635C175.22 69.6494 174.579 69.6177 173.951 69.5718C173.808 69.5612 173.664 69.5506 173.528 69.54C172.946 69.8293 172.344 70.1186 171.724 70.4396L169.923 71.3286C170.774 71.385 171.78 71.4485 172.673 71.4485C177.966 71.4485 182.208 70.4996 185.557 68.5699V68.5699Z" fill="#492EB3"/>
<path d="M176.845 61.7651C185.217 61.7651 190.791 59.3945 190.791 47.8062C190.791 42.3348 189.54 38.6414 186.983 36.5177C184.818 34.7257 181.497 33.8473 176.845 33.8473C172.193 33.8473 168.872 34.7186 166.707 36.5177C164.143 38.6379 162.899 42.3384 162.899 47.8062C162.899 59.3945 168.473 61.7651 176.845 61.7651V61.7651Z" fill="white"/>
<path d="M172.396 44.8395C172.396 43.7988 173.083 42.9169 174.025 42.6206C173.507 42.1373 172.813 41.841 172.049 41.841C170.449 41.841 169.138 43.1533 169.138 44.7548V50.5825C169.138 52.184 170.449 53.4963 172.049 53.4963C173.65 53.4963 174.961 52.1876 174.961 50.5825V47.1536C174.88 47.1607 174.799 47.1677 174.719 47.1677C173.433 47.1677 172.393 46.1271 172.393 44.843L172.396 44.8395Z" fill="#6842FF"/>
<path d="M181.883 44.6278C181.883 43.6225 182.52 42.7688 183.413 42.4442C182.923 42.0668 182.31 41.8375 181.644 41.8375C180.043 41.8375 178.733 43.1497 178.733 44.7513V50.579C178.733 52.1805 180.043 53.4928 181.644 53.4928C183.245 53.4928 184.555 52.1841 184.555 50.579V46.9279C184.443 46.9455 184.328 46.9561 184.209 46.9561C182.923 46.9561 181.883 45.9154 181.883 44.6314V44.6278Z" fill="#6842FF"/>
<path d="M33.524 60.261C32.6733 60.261 32.016 60.029 31.552 59.565C31.088 59.0817 30.856 58.4147 30.856 57.564V42.252C30.856 41.382 31.088 40.715 31.552 40.251C32.0353 39.787 32.7023 39.555 33.553 39.555H40.687C43.007 39.555 44.7953 40.1543 46.052 41.353C47.328 42.5323 47.966 44.166 47.966 46.254C47.966 48.342 47.328 49.9853 46.052 51.184C44.7953 52.3633 43.007 52.953 40.687 52.953H36.192V57.564C36.192 58.4147 35.9697 59.0817 35.525 59.565C35.0803 60.029 34.4133 60.261 33.524 60.261ZM36.192 48.864H39.759C40.7643 48.864 41.5377 48.6513 42.079 48.226C42.6203 47.7813 42.891 47.124 42.891 46.254C42.891 45.3647 42.6203 44.7073 42.079 44.282C41.5377 43.8567 40.7643 43.644 39.759 43.644H36.192V48.864ZM55.5287 60.319C53.6727 60.319 52.3 59.826 51.4107 58.84C50.5407 57.8347 50.1057 56.3267 50.1057 54.316V41.904C50.1057 41.0533 50.328 40.4057 50.7727 39.961C51.2173 39.5163 51.8457 39.294 52.6577 39.294C53.489 39.294 54.127 39.5163 54.5717 39.961C55.0357 40.4057 55.2677 41.0533 55.2677 41.904V54.142C55.2677 54.8573 55.403 55.3793 55.6737 55.708C55.9637 56.0367 56.331 56.201 56.7757 56.201C56.911 56.201 57.0463 56.1913 57.1817 56.172C57.3363 56.1333 57.5007 56.1043 57.6747 56.085C58.0033 56.085 58.245 56.2107 58.3997 56.462C58.5737 56.7133 58.6607 57.2257 58.6607 57.999C58.6607 58.6757 58.5253 59.188 58.2547 59.536C57.984 59.8647 57.5683 60.0773 57.0077 60.174C56.853 60.1933 56.6307 60.2223 56.3407 60.261C56.0507 60.2997 55.78 60.319 55.5287 60.319ZM65.1467 60.319C64.0447 60.319 63.0684 60.116 62.2177 59.71C61.3864 59.304 60.729 58.753 60.2457 58.057C59.7817 57.3417 59.5497 56.5297 59.5497 55.621C59.5497 54.577 59.8204 53.7553 60.3617 53.156C60.903 52.5567 61.773 52.1313 62.9717 51.88C64.1704 51.6093 65.7654 51.474 67.7567 51.474H69.3517V53.91H67.7567C67.0027 53.91 66.3744 53.968 65.8717 54.084C65.3884 54.1807 65.0307 54.345 64.7987 54.577C64.5667 54.7897 64.4507 55.07 64.4507 55.418C64.4507 55.8627 64.6054 56.23 64.9147 56.52C65.2434 56.81 65.7074 56.955 66.3067 56.955C66.79 56.955 67.2154 56.8487 67.5827 56.636C67.9694 56.4233 68.2787 56.1333 68.5107 55.766C68.7427 55.3793 68.8587 54.9347 68.8587 54.432V51.068C68.8587 50.372 68.675 49.879 68.3077 49.589C67.9597 49.299 67.3507 49.154 66.4807 49.154C66.0167 49.154 65.4947 49.212 64.9147 49.328C64.3347 49.4247 63.687 49.6083 62.9717 49.879C62.4497 50.0723 62.005 50.1013 61.6377 49.966C61.2704 49.8307 60.9804 49.5987 60.7677 49.27C60.5744 48.9413 60.4777 48.5837 60.4777 48.197C60.497 47.8103 60.6227 47.443 60.8547 47.095C61.106 46.747 61.483 46.4763 61.9857 46.283C62.9137 45.935 63.7644 45.703 64.5377 45.587C65.3304 45.471 66.0554 45.413 66.7127 45.413C68.298 45.413 69.603 45.645 70.6277 46.109C71.6717 46.5537 72.445 47.2497 72.9477 48.197C73.4697 49.125 73.7307 50.3237 73.7307 51.793V57.651C73.7307 58.5017 73.5277 59.1493 73.1217 59.594C72.7157 60.0387 72.126 60.261 71.3527 60.261C70.56 60.261 69.951 60.0387 69.5257 59.594C69.1197 59.1493 68.9167 58.5017 68.9167 57.651V56.897L69.0907 57.303C68.994 57.9217 68.7717 58.4533 68.4237 58.898C68.0757 59.3427 67.6214 59.6907 67.0607 59.942C66.5 60.1933 65.862 60.319 65.1467 60.319ZM80.6755 65.481C80.0762 65.481 79.5928 65.3263 79.2255 65.017C78.8582 64.7077 78.6262 64.3017 78.5295 63.799C78.4522 63.2963 78.5392 62.7647 78.7905 62.204L80.7335 57.999V60.087L75.7745 48.748C75.5232 48.168 75.4362 47.6267 75.5135 47.124C75.6102 46.6213 75.8712 46.225 76.2965 45.935C76.7218 45.6257 77.3018 45.471 78.0365 45.471C78.6552 45.471 79.1482 45.616 79.5155 45.906C79.9022 46.1767 80.2502 46.718 80.5595 47.53L83.4595 55.07H82.4735L85.5475 47.501C85.8568 46.7083 86.2048 46.1767 86.5915 45.906C86.9975 45.616 87.5388 45.471 88.2155 45.471C88.7955 45.471 89.2595 45.6257 89.6075 45.935C89.9555 46.225 90.1682 46.6213 90.2455 47.124C90.3228 47.6267 90.2358 48.168 89.9845 48.748L83.4015 63.538C83.0535 64.3113 82.6668 64.8237 82.2415 65.075C81.8355 65.3457 81.3135 65.481 80.6755 65.481ZM107.737 60.319C106.151 60.319 104.769 60.0193 103.59 59.42C102.41 58.8207 101.492 57.9603 100.835 56.839C100.177 55.7177 99.8488 54.3933 99.8488 52.866C99.8488 51.706 100.032 50.6717 100.4 49.763C100.767 48.835 101.299 48.052 101.995 47.414C102.691 46.7567 103.522 46.2637 104.489 45.935C105.455 45.587 106.538 45.413 107.737 45.413C109.322 45.413 110.704 45.7127 111.884 46.312C113.063 46.9113 113.972 47.7717 114.61 48.893C115.267 49.995 115.596 51.3193 115.596 52.866C115.596 54.0067 115.412 55.041 115.045 55.969C114.677 56.897 114.146 57.6897 113.45 58.347C112.773 58.985 111.942 59.478 110.956 59.826C109.989 60.1547 108.916 60.319 107.737 60.319ZM107.737 56.52C108.259 56.52 108.723 56.3943 109.129 56.143C109.535 55.8723 109.844 55.476 110.057 54.954C110.289 54.4127 110.405 53.7167 110.405 52.866C110.405 51.5707 110.153 50.6427 109.651 50.082C109.148 49.502 108.51 49.212 107.737 49.212C107.215 49.212 106.751 49.3377 106.345 49.589C105.939 49.8403 105.62 50.2367 105.388 50.778C105.156 51.3 105.04 51.996 105.04 52.866C105.04 54.142 105.291 55.07 105.794 55.65C106.296 56.23 106.944 56.52 107.737 56.52ZM120.513 60.261C119.701 60.261 119.073 60.0387 118.628 59.594C118.183 59.1493 117.961 58.5017 117.961 57.651V48.052C117.961 47.2207 118.174 46.5827 118.599 46.138C119.044 45.6933 119.672 45.471 120.484 45.471C121.296 45.471 121.915 45.6933 122.34 46.138C122.765 46.5827 122.978 47.2207 122.978 48.052V49.415L122.659 48.226C123.123 47.3173 123.78 46.6213 124.631 46.138C125.501 45.6547 126.487 45.413 127.589 45.413C128.73 45.413 129.667 45.6353 130.402 46.08C131.137 46.5053 131.688 47.182 132.055 48.11C132.422 49.0187 132.606 50.169 132.606 51.561V57.651C132.606 58.5017 132.384 59.1493 131.939 59.594C131.494 60.0387 130.856 60.261 130.025 60.261C129.194 60.261 128.556 60.0387 128.111 59.594C127.666 59.1493 127.444 58.5017 127.444 57.651V51.764C127.444 50.894 127.289 50.2753 126.98 49.908C126.69 49.5407 126.255 49.357 125.675 49.357C124.902 49.357 124.283 49.6083 123.819 50.111C123.355 50.5943 123.123 51.2517 123.123 52.083V57.651C123.123 59.391 122.253 60.261 120.513 60.261Z" fill="#0C0D14"/>
</svg>
