<svg width="512" height="512" viewBox="0 0 512 512" fill="none" xmlns="http://www.w3.org/2000/svg">
<path d="M432 0H80C35.8172 0 0 35.8172 0 80V432C0 476.183 35.8172 512 80 512H432C476.183 512 512 476.183 512 432V80C512 35.8172 476.183 0 432 0Z" fill="#4900E3"/>
<path d="M66.2786 263.703C103.269 266.241 142.016 246.55 174.775 230.488C174.828 230.462 174.886 230.446 174.946 230.443C175.005 230.439 175.064 230.448 175.12 230.468C175.177 230.488 175.237 230.496 175.296 230.493C175.356 230.489 175.415 230.474 175.469 230.447L216.753 209.949C269.444 184.96 325.005 156.701 386.752 178.551C451.589 201.496 479.745 264.513 456.48 329.824C435.101 389.858 367.652 425.02 300.564 401.28C264.299 388.447 240.622 359.238 222.062 326.839C222.054 326.825 222.046 326.81 222.04 326.795C217.039 315.499 220.825 302.659 229.869 296.723C240.643 289.652 257.185 293.488 264.341 306.699C277.237 328.391 293.338 347.427 317.541 355.991C355.663 369.482 395.727 348.576 408.449 312.859C422.25 274.124 404.825 236.282 367.47 223.064C324.015 207.687 275.667 232.53 236.154 251.89L194.562 272.255C151.344 292.763 106.183 315.46 57.2355 310.873C57.2151 310.871 57.1947 310.868 57.1746 310.863C45.0711 308.148 36.5397 298.491 36.1344 288.516C35.6034 275.477 48.9644 262.119 66.2786 263.703Z" fill="#80FFDB"/>
<path d="M281.74 158.79C297.894 142.704 297.894 116.623 281.74 100.537C265.586 84.4513 239.396 84.4513 223.242 100.537C207.088 116.623 207.088 142.704 223.242 158.79C239.396 174.876 265.586 174.876 281.74 158.79Z" fill="#FE5A26"/>
</svg>
